<svg width="29.302002" height="29.302002" viewBox="0 0 29.302 29.302" fill="none" xmlns="http://www.w3.org/2000/svg" xmlns:xlink="http://www.w3.org/1999/xlink">
	<desc>
			Created with Pixso.
	</desc>
	<defs>
		<clipPath id="clip4_87">
			<rect id="coffee-beans (1)" rx="0.000000" width="28.302002" height="28.302002" transform="translate(0.500000 0.500000)" fill="white" fill-opacity="0"/>
		</clipPath>
	</defs>
	<rect id="coffee-beans (1)" rx="0.000000" width="28.302002" height="28.302002" transform="translate(0.500000 0.500000)" fill="#FFFFFF" fill-opacity="0"/>
	<g clip-path="url(#clip4_87)">
		<path id="Vector" d="M5.38 26.55C4.03 24.16 4.95 20.41 7.75 17.61C10.93 14.43 15.33 13.67 17.58 15.92C17.58 15.92 17.58 15.92 17.59 15.93C17.14 17.23 15.71 20.02 11.42 21.52C7.48 22.9 5.97 25.09 5.38 26.55ZM16.26 19.59C15.23 20.61 13.77 21.62 11.71 22.35C7.51 23.82 6.34 26.22 6.01 27.39C6.03 27.4 6.04 27.42 6.06 27.44C8.3 29.68 12.7 28.92 15.88 25.74C18.71 22.91 19.62 19.12 18.21 16.73C17.87 17.53 17.28 18.56 16.26 19.59ZM7.58 9.24C12.11 9.64 14.56 7.69 15.51 6.69C15.51 6.68 15.5 6.68 15.5 6.67C14.38 3.7 10.06 2.58 5.85 4.17C2.15 5.57 -0.24 8.6 0.01 11.33C1.15 10.25 3.43 8.88 7.58 9.24ZM9.91 14.93C13.66 13.52 16.05 10.43 15.74 7.68C15.1 8.26 14.14 8.96 12.79 9.47C11.43 9.99 9.68 10.3 7.5 10.11C3.08 9.72 1.02 11.44 0.24 12.36C0.25 12.38 0.25 12.4 0.26 12.42C1.38 15.4 5.7 16.52 9.91 14.93ZM23.02 8.73C25.74 5.09 25.37 1.98 25.01 0.64C25.01 0.64 25 0.64 25 0.64C21.88 0.03 18.66 3.12 17.8 7.54C17.04 11.43 18.37 15.05 20.83 16.27C20.5 14.74 20.53 12.07 23.02 8.73ZM25.98 0.97C26.14 1.82 26.23 3.01 25.95 4.42C25.68 5.85 25.03 7.5 23.72 9.26C21.07 12.82 21.44 15.47 21.82 16.62C21.84 16.62 21.86 16.63 21.88 16.63C25 17.24 28.22 14.15 29.08 9.74C29.85 5.81 28.48 2.15 25.98 0.97Z" fill="#000000" fill-opacity="1.000000" fill-rule="nonzero"/>
	</g>
</svg>
