<svg width="43.000000" height="43.000000" viewBox="0 0 43 43" fill="none" xmlns="http://www.w3.org/2000/svg" xmlns:xlink="http://www.w3.org/1999/xlink">
	<desc>
			Created with Pixso.
	</desc>
	<defs>
		<filter id="filter_4_46_dd" x="0.000000" y="0.000000" width="43.000000" height="43.000000" filterUnits="userSpaceOnUse" color-interpolation-filters="sRGB">
			<feFlood flood-opacity="0" result="BackgroundImageFix"/>
			<feColorMatrix in="SourceAlpha" type="matrix" values="0 0 0 0 0 0 0 0 0 0 0 0 0 0 0 0 0 0 127 0" result="hardAlpha"/>
			<feOffset dx="0" dy="4"/>
			<feGaussianBlur stdDeviation="1.33333"/>
			<feComposite in2="hardAlpha" operator="out" k2="-1" k3="1"/>
			<feColorMatrix type="matrix" values="0 0 0 0 0 0 0 0 0 0 0 0 0 0 0 0 0 0 0.25 0"/>
			<feBlend mode="normal" in2="BackgroundImageFix" result="effect_dropShadow_1"/>
			<feBlend mode="normal" in="SourceGraphic" in2="effect_dropShadow_1" result="shape"/>
		</filter>
		<clipPath id="clip4_40">
			<rect id="coffee-beans" rx="0.000000" width="34.000000" height="34.000000" transform="translate(4.500000 0.500000)" fill="white" fill-opacity="0"/>
		</clipPath>
	</defs>
	<g filter="url(#filter_4_46_dd)">
		<rect id="coffee-beans" rx="0.000000" width="34.000000" height="34.000000" transform="translate(4.500000 0.500000)" fill="#FFFFFF" fill-opacity="0"/>
		<g clip-path="url(#clip4_40)">
			<path id="Vector" d="M4.05 26.98C4.6 31.54 10.09 34.98 16.83 34.98C22.9 34.98 28.05 32.18 29.36 28.18L29.36 28.17C29.57 27.56 29.67 26.91 29.67 26.26C29.67 26.06 29.66 25.87 29.63 25.67L29.63 25.61L29.63 25.61C29.39 23.88 28.53 22.3 27.22 21.16C28.72 21.81 30.33 22.17 31.96 22.2C33.32 22.22 34.66 21.89 35.84 21.22L35.84 21.22C36.3 20.96 36.72 20.65 37.09 20.28C37.37 20 37.62 19.68 37.84 19.35L37.84 19.35C40.3 15.64 38.72 9.42 34.17 4.87C29.96 0.65 24.17 -1.06 20.4 0.79C19.79 1.08 19.24 1.48 18.76 1.95C18.58 2.13 18.42 2.32 18.27 2.52L18.27 2.52C15.46 6.13 16.96 12.65 21.67 17.37C22.14 17.83 22.63 18.27 23.14 18.68C21.13 17.92 18.99 17.53 16.83 17.54C10.81 17.54 5.54 20.43 4.28 24.41C4.09 25.01 4 25.63 4 26.26C4 26.5 4.02 26.74 4.05 26.98L4.05 26.98ZM16.83 33.81C11.16 33.81 6.31 31.12 5.35 27.56C5.37 27.56 5.39 27.56 5.42 27.56C5.62 27.59 5.82 27.61 6.01 27.64C6.04 27.65 6.06 27.65 6.09 27.66C6.26 27.68 6.43 27.72 6.59 27.75C6.61 27.75 6.64 27.76 6.67 27.77C6.84 27.8 7 27.84 7.16 27.88C7.2 27.89 7.23 27.9 7.27 27.91C7.42 27.94 7.58 27.98 7.73 28.02C9.24 28.45 10.8 28.65 12.36 28.63C13.92 28.65 15.48 28.45 16.98 28.02C18.39 27.62 19.85 27.43 21.31 27.46C22.77 27.43 24.23 27.62 25.64 28.02C25.78 28.06 25.93 28.1 26.08 28.14C26.12 28.15 26.15 28.15 26.19 28.16C26.35 28.2 26.51 28.24 26.68 28.28C26.7 28.28 26.72 28.29 26.75 28.29C26.9 28.33 27.07 28.36 27.24 28.39C27.27 28.39 27.3 28.4 27.33 28.4C27.52 28.44 27.71 28.46 27.92 28.49C27.94 28.49 27.95 28.5 27.97 28.5C26.46 31.62 21.94 33.81 16.83 33.81ZM33.35 5.69C37.17 9.52 38.77 14.75 37.24 18.03C37.23 18.01 37.21 17.99 37.19 17.97C37.04 17.79 36.9 17.62 36.77 17.45C36.76 17.43 36.75 17.42 36.74 17.4C36.62 17.24 36.5 17.09 36.4 16.94C36.38 16.91 36.37 16.89 36.35 16.86C36.24 16.71 36.14 16.55 36.05 16.4C36.03 16.37 36.01 16.35 35.99 16.32C35.9 16.17 35.81 16.02 35.72 15.87C34.94 14.52 33.96 13.29 32.82 12.22C31.72 11.11 30.46 10.18 29.08 9.44C27.79 8.75 26.62 7.87 25.59 6.83C24.52 5.84 23.6 4.69 22.87 3.42C22.8 3.3 22.72 3.17 22.65 3.05L22.59 2.95C22.51 2.82 22.42 2.68 22.33 2.55C22.32 2.53 22.31 2.52 22.3 2.5C22.22 2.38 22.13 2.25 22.04 2.12C22.01 2.09 21.99 2.06 21.97 2.03C21.87 1.88 21.76 1.73 21.63 1.58C21.63 1.57 21.62 1.56 21.61 1.55C24.95 0.43 29.74 2.08 33.35 5.69ZM19.58 2.77C19.86 2.5 20.18 2.25 20.52 2.05C20.53 2.07 20.53 2.08 20.54 2.09C20.67 2.24 20.79 2.39 20.9 2.54C20.92 2.56 20.94 2.59 20.95 2.61C21.06 2.76 21.16 2.9 21.26 3.04C21.28 3.07 21.3 3.1 21.31 3.13C21.41 3.27 21.49 3.4 21.58 3.54C21.59 3.56 21.61 3.59 21.62 3.61C21.71 3.75 21.79 3.89 21.88 4.02C22.66 5.38 23.63 6.6 24.77 7.67C25.87 8.78 27.13 9.72 28.51 10.45C29.8 11.14 30.98 12.02 32.01 13.06C33.08 14.06 33.99 15.21 34.72 16.48C34.78 16.58 34.84 16.68 34.91 16.78C34.93 16.81 34.95 16.85 34.97 16.88C35.01 16.95 35.06 17.02 35.1 17.09C35.13 17.13 35.15 17.17 35.18 17.21C35.22 17.28 35.27 17.34 35.31 17.41C35.34 17.45 35.37 17.5 35.4 17.55C35.45 17.61 35.49 17.68 35.54 17.74C35.57 17.79 35.61 17.84 35.64 17.89C35.69 17.96 35.74 18.02 35.79 18.09C35.83 18.14 35.87 18.2 35.91 18.25C35.97 18.32 36.02 18.39 36.08 18.46C36.13 18.51 36.17 18.57 36.22 18.63C36.28 18.7 36.34 18.78 36.41 18.85C36.46 18.91 36.51 18.97 36.56 19.03C36.58 19.04 36.59 19.06 36.6 19.07C36.5 19.21 36.38 19.33 36.26 19.46C36.08 19.64 35.87 19.81 35.65 19.96L35.63 19.94C35.59 19.9 35.56 19.86 35.52 19.82C35.46 19.74 35.39 19.66 35.33 19.59C35.29 19.54 35.25 19.49 35.22 19.45C35.16 19.38 35.11 19.31 35.06 19.25C35.02 19.2 34.99 19.16 34.95 19.11C34.91 19.05 34.86 18.99 34.82 18.93C34.79 18.88 34.76 18.84 34.73 18.8C34.68 18.74 34.64 18.68 34.6 18.62C34.57 18.58 34.55 18.54 34.52 18.49C34.48 18.43 34.44 18.37 34.4 18.31C34.37 18.27 34.35 18.24 34.33 18.2C34.28 18.13 34.24 18.07 34.2 18C34.18 17.97 34.16 17.94 34.14 17.91C34.09 17.81 34.03 17.72 33.97 17.62C33.19 16.27 32.21 15.04 31.07 13.97C29.97 12.87 28.71 11.93 27.33 11.19C26.04 10.5 24.86 9.62 23.84 8.58C22.77 7.59 21.85 6.43 21.12 5.17C21.03 5.02 20.94 4.87 20.84 4.72C20.82 4.69 20.8 4.65 20.78 4.62C20.69 4.47 20.59 4.31 20.48 4.15C20.46 4.12 20.43 4.08 20.41 4.05C20.3 3.89 20.18 3.72 20.04 3.54C20.02 3.51 20 3.48 19.97 3.45C19.83 3.27 19.68 3.07 19.5 2.87L19.5 2.86C19.53 2.83 19.55 2.8 19.58 2.77ZM22.5 16.54C18.46 12.49 16.93 7.09 18.79 3.84C18.8 3.85 18.82 3.87 18.83 3.89C18.96 4.04 19.07 4.19 19.18 4.34C19.2 4.36 19.22 4.39 19.24 4.42C19.33 4.55 19.42 4.68 19.51 4.8C19.52 4.82 19.54 4.85 19.56 4.87C19.65 5.01 19.74 5.15 19.82 5.29C19.84 5.32 19.86 5.34 19.88 5.37C19.96 5.51 20.04 5.64 20.12 5.77C20.9 7.13 21.88 8.36 23.02 9.42C24.12 10.53 25.38 11.47 26.76 12.21C28.05 12.89 29.23 13.77 30.26 14.81C31.33 15.81 32.24 16.96 32.97 18.23C33.06 18.38 33.16 18.53 33.25 18.68C33.27 18.71 33.29 18.75 33.32 18.78C33.41 18.94 33.52 19.1 33.63 19.26C33.65 19.29 33.67 19.33 33.7 19.36C33.81 19.53 33.93 19.7 34.07 19.87L34.08 19.9C34.22 20.08 34.38 20.27 34.54 20.46C34.56 20.49 34.58 20.51 34.6 20.54C31.29 21.91 26.25 20.28 22.5 16.54ZM16.83 18.7C22.56 18.7 27.42 21.43 28.34 25.03C28.32 25.02 28.29 25.02 28.27 25.02C28.06 25 27.86 24.97 27.67 24.94C27.64 24.94 27.62 24.93 27.59 24.93C27.42 24.9 27.26 24.87 27.1 24.83C27.07 24.83 27.03 24.82 27 24.82C26.84 24.78 26.67 24.74 26.52 24.7C26.47 24.69 26.43 24.68 26.39 24.67C26.24 24.63 26.09 24.6 25.94 24.56C24.43 24.13 22.87 23.93 21.31 23.96C19.75 23.93 18.19 24.13 16.69 24.56C15.28 24.96 13.82 25.15 12.36 25.12C10.9 25.15 9.44 24.96 8.03 24.56C7.89 24.52 7.74 24.48 7.59 24.45C7.55 24.44 7.51 24.43 7.47 24.42C7.31 24.38 7.15 24.34 6.98 24.3C6.95 24.3 6.93 24.29 6.9 24.28C6.74 24.25 6.58 24.22 6.41 24.19C6.38 24.18 6.35 24.18 6.32 24.17C6.13 24.14 5.93 24.11 5.72 24.09C5.7 24.08 5.68 24.08 5.66 24.08C7.14 20.93 11.68 18.7 16.83 18.7ZM5.28 25.21L5.3 25.21C5.52 25.24 5.73 25.26 5.93 25.29C5.96 25.3 5.99 25.3 6.02 25.31C6.21 25.34 6.39 25.37 6.56 25.41C6.6 25.41 6.63 25.42 6.67 25.43C6.84 25.46 7 25.5 7.16 25.54C7.2 25.55 7.23 25.56 7.27 25.57C7.42 25.61 7.58 25.65 7.74 25.69C9.24 26.12 10.8 26.32 12.36 26.29C13.92 26.32 15.48 26.12 16.98 25.69C18.39 25.28 19.85 25.09 21.31 25.12C22.77 25.09 24.24 25.28 25.64 25.69C25.75 25.71 25.85 25.74 25.96 25.77C26 25.78 26.04 25.79 26.08 25.8C26.15 25.82 26.22 25.83 26.29 25.85C26.34 25.86 26.38 25.87 26.43 25.88C26.5 25.9 26.57 25.92 26.65 25.93C26.69 25.94 26.74 25.95 26.79 25.96C26.86 25.98 26.94 25.99 27.02 26.01C27.07 26.02 27.12 26.03 27.17 26.04C27.25 26.05 27.33 26.07 27.42 26.08C27.47 26.09 27.52 26.1 27.57 26.11C27.66 26.12 27.76 26.13 27.86 26.15C27.91 26.15 27.96 26.16 28.01 26.17C28.12 26.18 28.24 26.19 28.36 26.2C28.4 26.21 28.44 26.21 28.49 26.22L28.51 26.22C28.51 26.23 28.51 26.24 28.51 26.26C28.51 26.63 28.46 27.01 28.38 27.37L28.35 27.37C28.13 27.34 27.93 27.32 27.73 27.29C27.7 27.28 27.67 27.28 27.64 27.27C27.45 27.24 27.27 27.21 27.1 27.17C27.06 27.17 27.03 27.16 26.99 27.15C26.83 27.11 26.66 27.08 26.51 27.04C26.47 27.03 26.43 27.02 26.39 27.01C26.24 26.97 26.09 26.93 25.93 26.89C24.43 26.46 22.87 26.26 21.31 26.29C19.75 26.26 18.19 26.46 16.69 26.89C15.28 27.3 13.82 27.49 12.36 27.46C10.89 27.49 9.43 27.3 8.03 26.89C7.92 26.87 7.81 26.84 7.71 26.81C7.67 26.8 7.64 26.8 7.61 26.79C7.53 26.77 7.45 26.75 7.37 26.73C7.33 26.72 7.29 26.71 7.24 26.7C7.17 26.68 7.1 26.67 7.03 26.65C6.98 26.64 6.93 26.63 6.88 26.62C6.81 26.6 6.73 26.59 6.66 26.57C6.61 26.56 6.55 26.55 6.49 26.54C6.42 26.53 6.35 26.52 6.27 26.5C6.21 26.49 6.15 26.48 6.09 26.47C6.01 26.46 5.93 26.45 5.84 26.44C5.78 26.43 5.72 26.42 5.65 26.41C5.56 26.4 5.46 26.39 5.37 26.38C5.3 26.38 5.24 26.37 5.18 26.37L5.16 26.36C5.16 26.33 5.16 26.29 5.16 26.26C5.16 25.91 5.2 25.55 5.28 25.21Z" fill="#FFFFFF" fill-opacity="1.000000" fill-rule="nonzero"/>
			<path id="Vector" d="M10.68 30.11C10.44 29.99 10.22 29.86 10 29.72C9.73 29.55 9.37 29.63 9.2 29.91C9.02 30.18 9.11 30.54 9.38 30.71C9.62 30.86 9.88 31.01 10.15 31.15C10.43 31.3 10.79 31.19 10.93 30.9C11.08 30.61 10.97 30.26 10.68 30.11Z" fill="#FFFFFF" fill-opacity="1.000000" fill-rule="nonzero"/>
			<path id="Vector" d="M24.44 29.16C22.62 30.63 19.85 31.48 16.83 31.48C15.31 31.49 13.8 31.26 12.35 30.8C12.04 30.7 11.71 30.87 11.61 31.18C11.51 31.48 11.68 31.81 11.99 31.91C13.55 32.41 15.19 32.66 16.83 32.65C20.11 32.65 23.15 31.71 25.18 30.07C25.43 29.87 25.47 29.5 25.27 29.25C25.06 29 24.7 28.96 24.44 29.16Z" fill="#FFFFFF" fill-opacity="1.000000" fill-rule="nonzero"/>
			<path id="Vector" d="M20.68 9.21C20.62 8.98 20.57 8.75 20.52 8.53C20.46 8.21 20.15 8.01 19.83 8.07C19.52 8.13 19.31 8.44 19.38 8.76C19.43 9.01 19.49 9.26 19.56 9.52C19.65 9.83 19.97 10.01 20.28 9.93C20.59 9.84 20.77 9.52 20.68 9.21Z" fill="#FFFFFF" fill-opacity="1.000000" fill-rule="nonzero"/>
			<path id="Vector" d="M32.13 19.29C32.15 18.97 31.9 18.69 31.58 18.67C29.18 18.52 26.33 17.07 24.15 14.89C23.05 13.8 22.14 12.55 21.44 11.16C21.3 10.88 20.95 10.76 20.66 10.9C20.37 11.04 20.26 11.39 20.4 11.68C21.15 13.18 22.14 14.54 23.33 15.71C25.74 18.13 28.8 19.67 31.51 19.83C31.52 19.83 31.53 19.83 31.55 19.83C31.85 19.83 32.11 19.59 32.13 19.29Z" fill="#FFFFFF" fill-opacity="1.000000" fill-rule="nonzero"/>
		</g>
	</g>
</svg>
